<svg xmlns="http://www.w3.org/2000/svg" xmlns:xlink="http://www.w3.org/1999/xlink" width="223.51" height="55" viewBox="0 0 223.51 55"><defs><clipPath id="a"><rect width="223.51" height="55" fill="none"/></clipPath></defs><g transform="translate(0 0)"><g transform="translate(0 0)" clip-path="url(#a)"><path d="M27.3,2.306a3.06,3.06,0,0,0-.347.02,2.822,2.822,0,1,0,.347-.02M27.3,10.23a5.115,5.115,0,1,1,3.151-9.146,5.115,5.115,0,0,1-2.522,9.108,5.376,5.376,0,0,1-.629.038" transform="translate(14.641 0)" fill="#cf152d"/><path d="M25.906,51.868A25.86,25.86,0,0,1,11.162,4.745l2.727,3.947A21.061,21.061,0,1,0,46.469,21.6,21.466,21.466,0,0,0,45.5,18.38l4.472-1.74a26.149,26.149,0,0,1,1.185,3.946A25.863,25.863,0,0,1,25.906,51.868" transform="translate(0 3.131)" fill="#cf152d"/><path d="M23.026,43.446a18.534,18.534,0,1,1,0-37.067c.52,0,1.046.022,1.56.065l-.4,4.781c-.383-.032-.774-.048-1.16-.048A13.73,13.73,0,1,0,36.1,29.141l4.565,1.474a18.172,18.172,0,0,1-.8,2.055A18.6,18.6,0,0,1,23.026,43.446" transform="translate(2.965 4.209)" fill="#cf152d"/><path d="M19.891,15.926a5.851,5.851,0,1,0,5.851,5.851,5.857,5.857,0,0,0-5.851-5.851m0,16.5A10.65,10.65,0,1,1,30.54,21.778a10.661,10.661,0,0,1-10.649,10.65" transform="translate(6.1 7.344)" fill="#cf152d"/><path d="M170.457,20.114a6.461,6.461,0,0,1,1.24,4.258H161.555a7.02,7.02,0,0,1,1.638-4.213,4.8,4.8,0,0,1,3.725-1.522,4.36,4.36,0,0,1,3.539,1.477m.611,15.876a15.555,15.555,0,0,0,2.948-.964V32.406a15.629,15.629,0,0,1-6.2,1.31,5.971,5.971,0,0,1-4.611-1.77,7.689,7.689,0,0,1-1.725-5.186h13.363V24.9a9.188,9.188,0,0,0-2.125-6.326,7.318,7.318,0,0,0-5.77-2.4,7.671,7.671,0,0,0-6.2,2.761,11.255,11.255,0,0,0-2.309,7.452,10.139,10.139,0,0,0,2.487,7.274,8.912,8.912,0,0,0,6.788,2.619,16.586,16.586,0,0,0,3.353-.292M141.834,19.434a4.311,4.311,0,0,1,3.186-1.116q4.355,0,4.354,4.372,0,4.176-4.3,4.177a4.6,4.6,0,0,1-3.2-1.044,3.948,3.948,0,0,1-1.149-3.079,4.489,4.489,0,0,1,1.114-3.31m-1.594,17.008a4.641,4.641,0,0,1,3.116-.956h3.522a7.566,7.566,0,0,1,3.664.611,2.373,2.373,0,0,1,.973,2.186,3.387,3.387,0,0,1-1.778,3,10.629,10.629,0,0,1-5.478,1.106,7.324,7.324,0,0,1-3.8-.813,2.631,2.631,0,0,1-1.328-2.389,3.42,3.42,0,0,1,1.114-2.744m7.646-19.911a9.85,9.85,0,0,0-2.742-.354,7.8,7.8,0,0,0-5.417,1.726,6.276,6.276,0,0,0-1.911,4.91,6.19,6.19,0,0,0,.946,3.4,5.244,5.244,0,0,0,2.452,2.107,5.964,5.964,0,0,0-1.788,1.54,3.128,3.128,0,0,0-.566,1.858,2.759,2.759,0,0,0,.5,1.647,3.073,3.073,0,0,0,1.247,1.044,5.77,5.77,0,0,0-3.186,1.751A4.493,4.493,0,0,0,136.3,39.22a4.57,4.57,0,0,0,2.062,4,10.3,10.3,0,0,0,5.868,1.418q4.955,0,7.538-1.692a5.506,5.506,0,0,0,2.585-4.912,4.611,4.611,0,0,0-1.69-3.858,7.691,7.691,0,0,0-4.841-1.328h-3.433a4.787,4.787,0,0,1-2.249-.38,1.265,1.265,0,0,1-.654-1.177,2.892,2.892,0,0,1,1.876-2.495,8.892,8.892,0,0,0,1.628.141,7.856,7.856,0,0,0,5.345-1.7,5.736,5.736,0,0,0,1.947-4.548A6.311,6.311,0,0,0,151,18.814l3.592-.425V16.53ZM129.24,17.2a8.534,8.534,0,0,0-2.6,2.922H126.5l-.337-3.594h-2.424v19.4h2.937V25.521a6.978,6.978,0,0,1,1.673-4.761,5.175,5.175,0,0,1,4.027-1.911,9.965,9.965,0,0,1,2.123.266l.407-2.726a11.514,11.514,0,0,0-2.317-.212A5.854,5.854,0,0,0,129.24,17.2m-24.719,3.363a5.172,5.172,0,0,1,4.354-1.892,5.257,5.257,0,0,1,4.416,1.919,9.012,9.012,0,0,1,1.5,5.619,9.162,9.162,0,0,1-1.5,5.674,5.9,5.9,0,0,1-8.751-.01,9.2,9.2,0,0,1-1.487-5.664,9.114,9.114,0,0,1,1.469-5.646m10.911-1.682a8.208,8.208,0,0,0-6.469-2.707,8.383,8.383,0,0,0-6.583,2.646q-2.373,2.647-2.372,7.389a12.205,12.205,0,0,0,1.1,5.345,8.053,8.053,0,0,0,3.116,3.5,8.733,8.733,0,0,0,4.618,1.222,8.412,8.412,0,0,0,6.6-2.664q2.39-2.662,2.39-7.407a10.657,10.657,0,0,0-2.4-7.327M93.944,10.053H91.13V24.9q-.037,1.116.088,3.708t.159,3.071h-.141L77.13,10.053h-3.4V35.929h2.779V21.221q0-3.187-.284-7.01h.143l14.14,21.717h3.434Z" transform="translate(48.662 6.634)" fill="#460028"/><path d="M63.85,35.929H58.38V25H48.134V35.929H42.647V10.053h5.488V19.96H58.38V10.053h5.47Z" transform="translate(28.146 6.634)" fill="#460028"/><path d="M72.367,10.065H66.288l-7,8.783-2.563,3.615,2.563,3.612,7.828,9.864h6.071L62.595,22.464Z" transform="translate(37.439 6.642)" fill="#460028"/></g></g></svg>