<svg xmlns="http://www.w3.org/2000/svg" viewBox="0 0 40 40">
  <defs>
    <style>
      .outer {
        fill: #365874;
      }
      .bag {
        fill: #ffffff;
      }
      .accent {
        fill: #b79c72;
      }
    </style>
  </defs>
  <g data-name="Layer 1">
    <circle class="outer" cx="20" cy="20" r="20" />
    <path
      class="bag"
      d="M13 13h14a2 2 0 0 1 2 2v11a3 3 0 0 1-3 3H14a3 3 0 0 1-3-3V15a2 2 0 0 1 2-2Z"
    />
    <path
      class="outer"
      d="M16 13.5a4 4 0 0 1 8 0v1.5h2V13.5a6 6 0 1 0-12 0v1.5h2Z"
    />
    <rect class="accent" x="15" y="18" width="10" height="7" rx="1.5" />
    <path
      class="outer"
      d="M20 24.5a1.25 1.25 0 1 1 1.25-1.25A1.25 1.25 0 0 1 20 24.5Z"
    />
  </g>
</svg>